# xmcd
#
# Track frame offsets:
# 150
# 9624
# 21618
# 31966
# 49352
# 61540
# 74713
# 83074
# 103575
# 119503
# 134021
# 149949
# 160456
# 173490
# 195044
#
# Disc length: 2774 seconds
#
#
# Revision: 0
# Processed by: cddbd v1.5.2PL0 Copyright (c) Steve Scherf et al.
# Submitted via: FreeRIP 2.941 
#
DISCID=da0ad40f
DTITLE=Jesse and The Hogg Brothers - Working For Yankee Money
DYEAR=2009
DGENRE=Country Comedy
TTITLE0=Warmups
TTITLE1=Fake It
TTITLE2=The Legend of the Lesson of Fishin and Drinking
TTITLE3=Reminds Me of You
TTITLE4=Don't Mess With Texas
TTITLE5=White Trash Meth Lab
TTITLE6=Sundee School
TTITLE7=One Stars
TTITLE8=Big Pink Rig
TTITLE9=She's Done Gone to the Gittin Place
TTITLE10=Have You Been Screwing Truckers Again?
TTITLE11=Yankee Money
TTITLE12=Biker Ann
TTITLE13=Hogg Brother Christmas
TTITLE14=I Love the White Trash Life
EXTD=
EXTT0=
EXTT1=
EXTT2=
EXTT3=
EXTT4=
EXTT5=
EXTT6=
EXTT7=
EXTT8=
EXTT9=
EXTT10=
EXTT11=
EXTT12=
EXTT13=
EXTT14=
PLAYORDER=
